<svg xmlns="http://www.w3.org/2000/svg" viewBox="0 0 228 68"><defs><linearGradient x1="61.038%" y1="4.963%" x2="26.516%" y2="71.904%" id="a"><stop stop-color="#00A0FF" offset="0%"/><stop stop-color="#00A1FF" offset=".657%"/><stop stop-color="#00BEFF" offset="26.01%"/><stop stop-color="#00D2FF" offset="51.22%"/><stop stop-color="#00DFFF" offset="76.04%"/><stop stop-color="#00E3FF" offset="100%"/></linearGradient><linearGradient x1="107.59%" y1="50%" x2="-130.463%" y2="50%" id="b"><stop stop-color="#FFE000" offset="0%"/><stop stop-color="#FFBD00" offset="40.87%"/><stop stop-color="orange" offset="77.54%"/><stop stop-color="#FF9C00" offset="100%"/></linearGradient><linearGradient x1="86.246%" y1="30.866%" x2="-50.14%" y2="136.056%" id="c"><stop stop-color="#FF3A44" offset="0%"/><stop stop-color="#C31162" offset="100%"/></linearGradient><linearGradient x1="-18.806%" y1="-11.89%" x2="42.096%" y2="35.082%" id="d"><stop stop-color="#32A071" offset="0%"/><stop stop-color="#2DA771" offset="6.85%"/><stop stop-color="#15CF74" offset="47.62%"/><stop stop-color="#06E775" offset="80.09%"/><stop stop-color="#00F076" offset="100%"/></linearGradient></defs><g transform="translate(0 .5)" fill-rule="nonzero" fill="none"><rect fill="#000" width="227.812" height="67.5" rx="8.437"/><path d="M80.019 17.286a4.568 4.568 0 01-1.258 3.38 4.908 4.908 0 01-3.72 1.498 5.214 5.214 0 01-5.26-5.289 5.215 5.215 0 015.26-5.289 5.224 5.224 0 012.079.424c.61.248 1.152.635 1.583 1.132l-.89.89a3.42 3.42 0 00-2.771-1.201 3.914 3.914 0 00-3.932 4.044 3.981 3.981 0 006.76 2.914c.519-.56.82-1.288.848-2.051h-3.677v-1.216h4.907c.046.252.07.507.07.764h0zM87.797 13.057h-4.611v3.21h4.158v1.216h-4.158v3.21h4.61v1.245h-5.91V11.813h5.91zM93.283 21.938H91.98v-8.881h-2.828v-1.244h6.958v1.244h-2.828zM101.145 21.938V11.813h1.3v10.125zM108.216 21.938h-1.301v-8.881h-2.828v-1.244h6.957v1.244h-2.828zM124.216 20.63a5.257 5.257 0 01-7.424 0 5.176 5.176 0 01-1.492-3.755 5.176 5.176 0 011.492-3.754 5.24 5.24 0 017.417.007 5.177 5.177 0 011.498 3.747 5.184 5.184 0 01-1.491 3.754h0zm-6.464-.849a3.893 3.893 0 005.501 0 3.963 3.963 0 001.126-2.906 3.963 3.963 0 00-1.126-2.906 3.893 3.893 0 00-5.5 0 3.968 3.968 0 00-1.125 2.906 3.967 3.967 0 001.124 2.906h0zM127.533 21.938V11.813h1.584l4.92 7.876h.056l-.056-1.951v-5.925h1.302v10.125h-1.358l-5.148-8.258h-.056l.056 1.951v6.307z" stroke="#FFF" stroke-width=".5" fill="#FFF"/><path d="M114.98 36.706a7.177 7.177 0 107.204 7.177 7.074 7.074 0 00-7.205-7.177zm0 11.527a4.36 4.36 0 114.05-4.35 4.152 4.152 0 01-4.05 4.35zM99.262 36.706a7.177 7.177 0 107.204 7.177 7.074 7.074 0 00-7.204-7.177zm0 11.527a4.36 4.36 0 114.05-4.35 4.152 4.152 0 01-4.05 4.35zm-18.696-9.325v3.045h7.286a6.354 6.354 0 01-1.658 3.833 7.459 7.459 0 01-5.628 2.23 8.102 8.102 0 010-16.204 7.765 7.765 0 015.492 2.175l2.148-2.147a10.622 10.622 0 00-7.64-3.073 11.148 11.148 0 100 22.293 10.19 10.19 0 007.776-3.126 10.06 10.06 0 002.637-7.123 9.903 9.903 0 00-.164-1.903H80.567zm76.458 2.365a6.67 6.67 0 00-6.144-4.567 6.82 6.82 0 00-6.77 7.177 7.023 7.023 0 007.123 7.177 7.139 7.139 0 005.981-3.18l-2.447-1.632a4.099 4.099 0 01-3.534 1.985 3.65 3.65 0 01-3.48-2.175l9.597-3.97-.326-.815zm-9.787 2.393a3.936 3.936 0 013.752-4.187 2.78 2.78 0 012.664 1.523l-6.416 2.664zm-7.803 6.96h3.154V29.528h-3.154v21.096zM134.27 38.31h-.109a4.974 4.974 0 00-3.779-1.604 7.184 7.184 0 000 14.354 4.894 4.894 0 003.78-1.63h.108v1.032c0 2.746-1.468 4.214-3.833 4.214a3.971 3.971 0 01-3.616-2.555l-2.746 1.141a6.84 6.84 0 006.362 4.242c3.697 0 6.824-2.175 6.824-7.477V37.141h-2.991v1.169zm-3.616 9.923a4.365 4.365 0 010-8.7 4.045 4.045 0 013.833 4.377 4.01 4.01 0 01-3.833 4.323zm41.143-18.704h-7.545v21.096h3.148v-7.992h4.397a6.562 6.562 0 100-13.104zm.082 10.168H167.4v-7.232h4.479a3.616 3.616 0 110 7.232zm19.46-3.03a5.912 5.912 0 00-5.619 3.23l2.796 1.167a2.983 2.983 0 012.876-1.547 3.032 3.032 0 013.312 2.714v.217a6.966 6.966 0 00-3.284-.814c-3.013 0-6.08 1.655-6.08 4.75a4.873 4.873 0 005.238 4.64 4.442 4.442 0 004.017-2.062h.109v1.628h3.04v-8.088c0-3.745-2.796-5.835-6.406-5.835zm-.38 11.562c-1.032 0-2.47-.516-2.47-1.791 0-1.629 1.79-2.253 3.338-2.253a5.61 5.61 0 012.877.706 3.817 3.817 0 01-3.746 3.338zm17.858-11.1l-3.61 9.146h-.109l-3.745-9.146h-3.392l5.617 12.783-3.202 7.11h3.284l8.658-19.893h-3.501zm-28.362 13.496h3.148V29.53h-3.148v21.096z" fill="#FFF"/><path d="M17.61 12.72a3.379 3.379 0 00-.781 2.371v37.321c-.052.861.227 1.71.78 2.371l.125.122 20.907-20.907v-.493L17.734 12.598l-.124.123z" fill="url(#a)"/><path d="M45.61 40.97l-6.97-6.972v-.493l6.97-6.97.158.09 8.257 4.691c2.358 1.34 2.358 3.532 0 4.873l-8.257 4.692-.159.09z" fill="url(#b)"/><path d="M45.768 40.88l-7.127-7.128L17.61 54.783a2.745 2.745 0 003.506.104L45.768 40.88" fill="url(#c)"/><path d="M45.768 26.624L21.116 12.617a2.745 2.745 0 00-3.506.104l21.03 21.03 7.128-7.127z" fill="url(#d)"/><path d="M45.61 40.723L21.117 54.64a2.81 2.81 0 01-3.38.018l-.126.126.124.121h.001a2.81 2.81 0 003.381-.018L45.768 40.88l-.157-.157z" fill="#000" opacity=".2"/><path d="M17.61 54.537a3.38 3.38 0 01-.782-2.37v.246c-.051.861.228 1.71.782 2.37l.125-.125-.125-.12zM54.025 35.942l-8.414 4.78.157.158 8.257-4.692a2.961 2.961 0 001.769-2.435 3.143 3.143 0 01-1.77 2.189z" fill="#000" opacity=".12"/><path d="M21.116 12.864l32.909 18.698a3.141 3.141 0 011.769 2.19 2.96 2.96 0 00-1.77-2.437L21.117 12.618c-2.358-1.34-4.287-.227-4.287 2.474v.247c0-2.702 1.929-3.815 4.287-2.475z" fill="#FFF" opacity=".25"/></g></svg>
